<mxfile host="app.diagrams.net" modified="2024-07-23T12:12:48.034Z" agent="Mozilla/5.0 (Windows NT 10.0; Win64; x64) AppleWebKit/537.36 (KHTML, like Gecko) Chrome/126.0.0.0 Safari/537.36" etag="vZtd-H6fs_yXDw1JtXu5" version="24.7.3" type="device">
  <diagram name="Page-1" id="SADD4m_SkAK8Yx867Yrv">
    <mxGraphModel dx="1728" dy="922" grid="0" gridSize="10" guides="1" tooltips="1" connect="1" arrows="1" fold="1" page="1" pageScale="1" pageWidth="4681" pageHeight="3300" math="0" shadow="0">
      <root>
        <mxCell id="0" />
        <mxCell id="1" parent="0" />
        <mxCell id="ghD1SMU0GDY-hBt2vnao-10" style="edgeStyle=orthogonalEdgeStyle;rounded=0;orthogonalLoop=1;jettySize=auto;html=1;" edge="1" parent="1" source="ghD1SMU0GDY-hBt2vnao-1" target="ghD1SMU0GDY-hBt2vnao-2">
          <mxGeometry relative="1" as="geometry">
            <Array as="points">
              <mxPoint x="25" y="110" />
            </Array>
          </mxGeometry>
        </mxCell>
        <mxCell id="ghD1SMU0GDY-hBt2vnao-12" value="start program" style="edgeLabel;html=1;align=center;verticalAlign=middle;resizable=0;points=[];" vertex="1" connectable="0" parent="ghD1SMU0GDY-hBt2vnao-10">
          <mxGeometry x="0.1507" y="1" relative="1" as="geometry">
            <mxPoint x="-13" y="-9" as="offset" />
          </mxGeometry>
        </mxCell>
        <mxCell id="ghD1SMU0GDY-hBt2vnao-54" style="edgeStyle=orthogonalEdgeStyle;rounded=0;orthogonalLoop=1;jettySize=auto;html=1;dashed=1;endArrow=none;endFill=0;" edge="1" parent="1" source="ghD1SMU0GDY-hBt2vnao-1" target="ghD1SMU0GDY-hBt2vnao-55">
          <mxGeometry relative="1" as="geometry">
            <mxPoint x="25" y="840.0000000000002" as="targetPoint" />
          </mxGeometry>
        </mxCell>
        <mxCell id="ghD1SMU0GDY-hBt2vnao-1" value="User" style="shape=umlActor;verticalLabelPosition=top;verticalAlign=bottom;html=1;labelPosition=center;align=center;fillColor=#fff2cc;strokeColor=#d6b656;" vertex="1" parent="1">
          <mxGeometry x="10" y="100" width="30" height="60" as="geometry" />
        </mxCell>
        <mxCell id="ghD1SMU0GDY-hBt2vnao-13" style="edgeStyle=elbowEdgeStyle;rounded=0;orthogonalLoop=1;jettySize=auto;html=1;elbow=vertical;curved=0;" edge="1" parent="1" target="ghD1SMU0GDY-hBt2vnao-3">
          <mxGeometry relative="1" as="geometry">
            <mxPoint x="149.5" y="140" as="sourcePoint" />
            <mxPoint x="269.5" y="140" as="targetPoint" />
          </mxGeometry>
        </mxCell>
        <mxCell id="ghD1SMU0GDY-hBt2vnao-14" value="loadConfig(&quot;sc_config.yaml&quot;)" style="edgeLabel;html=1;align=center;verticalAlign=middle;resizable=0;points=[];" vertex="1" connectable="0" parent="ghD1SMU0GDY-hBt2vnao-13">
          <mxGeometry x="-0.675" y="1" relative="1" as="geometry">
            <mxPoint x="55" y="-9" as="offset" />
          </mxGeometry>
        </mxCell>
        <mxCell id="ghD1SMU0GDY-hBt2vnao-31" style="edgeStyle=elbowEdgeStyle;rounded=0;orthogonalLoop=1;jettySize=auto;html=1;elbow=vertical;curved=0;" edge="1" parent="1">
          <mxGeometry relative="1" as="geometry">
            <mxPoint x="149.5" y="330" as="sourcePoint" />
            <mxPoint x="989.5" y="330" as="targetPoint" />
          </mxGeometry>
        </mxCell>
        <mxCell id="ghD1SMU0GDY-hBt2vnao-32" value="calculateTotalAndQueryValues(config, queries, startTime, endTime, timeframe)" style="edgeLabel;html=1;align=center;verticalAlign=middle;resizable=0;points=[];" vertex="1" connectable="0" parent="ghD1SMU0GDY-hBt2vnao-31">
          <mxGeometry x="-0.4239" y="1" relative="1" as="geometry">
            <mxPoint x="-42" y="-9" as="offset" />
          </mxGeometry>
        </mxCell>
        <mxCell id="ghD1SMU0GDY-hBt2vnao-2" value="Main Function" style="shape=umlLifeline;perimeter=lifelinePerimeter;whiteSpace=wrap;html=1;container=1;dropTarget=0;collapsible=0;recursiveResize=0;outlineConnect=0;portConstraint=eastwest;newEdgeStyle={&quot;edgeStyle&quot;:&quot;elbowEdgeStyle&quot;,&quot;elbow&quot;:&quot;vertical&quot;,&quot;curved&quot;:0,&quot;rounded&quot;:0};fillColor=#fff2cc;strokeColor=#d6b656;" vertex="1" parent="1">
          <mxGeometry x="100" y="50" width="100" height="860" as="geometry" />
        </mxCell>
        <mxCell id="ghD1SMU0GDY-hBt2vnao-15" style="edgeStyle=elbowEdgeStyle;rounded=0;orthogonalLoop=1;jettySize=auto;html=1;elbow=vertical;curved=0;" edge="1" parent="1" source="ghD1SMU0GDY-hBt2vnao-3">
          <mxGeometry relative="1" as="geometry">
            <mxPoint x="309.5" y="160" as="sourcePoint" />
            <mxPoint x="149.5" y="160" as="targetPoint" />
          </mxGeometry>
        </mxCell>
        <mxCell id="ghD1SMU0GDY-hBt2vnao-16" value="return Config" style="edgeLabel;html=1;align=center;verticalAlign=middle;resizable=0;points=[];" vertex="1" connectable="0" parent="ghD1SMU0GDY-hBt2vnao-15">
          <mxGeometry x="0.2938" relative="1" as="geometry">
            <mxPoint x="15" y="-10" as="offset" />
          </mxGeometry>
        </mxCell>
        <mxCell id="ghD1SMU0GDY-hBt2vnao-3" value="Config Loader" style="shape=umlLifeline;perimeter=lifelinePerimeter;whiteSpace=wrap;html=1;container=1;dropTarget=0;collapsible=0;recursiveResize=0;outlineConnect=0;portConstraint=eastwest;newEdgeStyle={&quot;edgeStyle&quot;:&quot;elbowEdgeStyle&quot;,&quot;elbow&quot;:&quot;vertical&quot;,&quot;curved&quot;:0,&quot;rounded&quot;:0};fillColor=#fff2cc;strokeColor=#d6b656;" vertex="1" parent="1">
          <mxGeometry x="500" y="50" width="100" height="860" as="geometry" />
        </mxCell>
        <mxCell id="ghD1SMU0GDY-hBt2vnao-35" style="edgeStyle=elbowEdgeStyle;rounded=0;orthogonalLoop=1;jettySize=auto;html=1;elbow=vertical;curved=0;dashed=1;" edge="1" parent="1">
          <mxGeometry relative="1" as="geometry">
            <mxPoint x="699.5" y="420" as="sourcePoint" />
            <mxPoint x="989.5" y="420" as="targetPoint" />
          </mxGeometry>
        </mxCell>
        <mxCell id="ghD1SMU0GDY-hBt2vnao-36" value="return response" style="edgeLabel;html=1;align=center;verticalAlign=middle;resizable=0;points=[];" vertex="1" connectable="0" parent="ghD1SMU0GDY-hBt2vnao-35">
          <mxGeometry x="-0.3966" y="2" relative="1" as="geometry">
            <mxPoint x="-36" y="-8" as="offset" />
          </mxGeometry>
        </mxCell>
        <mxCell id="ghD1SMU0GDY-hBt2vnao-4" value="Prometheus API" style="shape=umlLifeline;perimeter=lifelinePerimeter;whiteSpace=wrap;html=1;container=1;dropTarget=0;collapsible=0;recursiveResize=0;outlineConnect=0;portConstraint=eastwest;newEdgeStyle={&quot;edgeStyle&quot;:&quot;elbowEdgeStyle&quot;,&quot;elbow&quot;:&quot;vertical&quot;,&quot;curved&quot;:0,&quot;rounded&quot;:0};fillColor=#fff2cc;strokeColor=#d6b656;" vertex="1" parent="1">
          <mxGeometry x="650" y="50" width="100" height="860" as="geometry" />
        </mxCell>
        <mxCell id="ghD1SMU0GDY-hBt2vnao-33" style="edgeStyle=elbowEdgeStyle;rounded=0;orthogonalLoop=1;jettySize=auto;html=1;elbow=vertical;curved=0;" edge="1" parent="1" source="ghD1SMU0GDY-hBt2vnao-5">
          <mxGeometry relative="1" as="geometry">
            <mxPoint x="989.5" y="390" as="sourcePoint" />
            <mxPoint x="699.5" y="390" as="targetPoint" />
          </mxGeometry>
        </mxCell>
        <mxCell id="ghD1SMU0GDY-hBt2vnao-34" value="makeQuery(config, query, startTime, endTIme, step)" style="edgeLabel;html=1;align=center;verticalAlign=middle;resizable=0;points=[];" vertex="1" connectable="0" parent="ghD1SMU0GDY-hBt2vnao-33">
          <mxGeometry x="0.3063" y="-2" relative="1" as="geometry">
            <mxPoint x="40" y="-8" as="offset" />
          </mxGeometry>
        </mxCell>
        <mxCell id="ghD1SMU0GDY-hBt2vnao-42" style="edgeStyle=elbowEdgeStyle;rounded=0;orthogonalLoop=1;jettySize=auto;html=1;elbow=vertical;curved=0;dashed=1;" edge="1" parent="1">
          <mxGeometry relative="1" as="geometry">
            <mxPoint x="989.5" y="509.9958620689656" as="sourcePoint" />
            <mxPoint x="149.81034482758628" y="509.9958620689656" as="targetPoint" />
          </mxGeometry>
        </mxCell>
        <mxCell id="ghD1SMU0GDY-hBt2vnao-43" value="return lastValue" style="edgeLabel;html=1;align=center;verticalAlign=middle;resizable=0;points=[];" vertex="1" connectable="0" parent="ghD1SMU0GDY-hBt2vnao-42">
          <mxGeometry x="0.3687" y="-1" relative="1" as="geometry">
            <mxPoint x="-215" y="-9" as="offset" />
          </mxGeometry>
        </mxCell>
        <mxCell id="ghD1SMU0GDY-hBt2vnao-5" value="Data Processor" style="shape=umlLifeline;perimeter=lifelinePerimeter;whiteSpace=wrap;html=1;container=1;dropTarget=0;collapsible=0;recursiveResize=0;outlineConnect=0;portConstraint=eastwest;newEdgeStyle={&quot;edgeStyle&quot;:&quot;elbowEdgeStyle&quot;,&quot;elbow&quot;:&quot;vertical&quot;,&quot;curved&quot;:0,&quot;rounded&quot;:0};fillColor=#fff2cc;strokeColor=#d6b656;" vertex="1" parent="1">
          <mxGeometry x="940" y="50" width="100" height="860" as="geometry" />
        </mxCell>
        <mxCell id="ghD1SMU0GDY-hBt2vnao-6" value="CSV/Excel Writer" style="shape=umlLifeline;perimeter=lifelinePerimeter;whiteSpace=wrap;html=1;container=1;dropTarget=0;collapsible=0;recursiveResize=0;outlineConnect=0;portConstraint=eastwest;newEdgeStyle={&quot;edgeStyle&quot;:&quot;elbowEdgeStyle&quot;,&quot;elbow&quot;:&quot;vertical&quot;,&quot;curved&quot;:0,&quot;rounded&quot;:0};fillColor=#fff2cc;strokeColor=#d6b656;" vertex="1" parent="1">
          <mxGeometry x="1220" y="50" width="100" height="860" as="geometry" />
        </mxCell>
        <mxCell id="ghD1SMU0GDY-hBt2vnao-7" value="Email Sender" style="shape=umlLifeline;perimeter=lifelinePerimeter;whiteSpace=wrap;html=1;container=1;dropTarget=0;collapsible=0;recursiveResize=0;outlineConnect=0;portConstraint=eastwest;newEdgeStyle={&quot;edgeStyle&quot;:&quot;elbowEdgeStyle&quot;,&quot;elbow&quot;:&quot;vertical&quot;,&quot;curved&quot;:0,&quot;rounded&quot;:0};fillColor=#fff2cc;strokeColor=#d6b656;" vertex="1" parent="1">
          <mxGeometry x="1360" y="50" width="100" height="860" as="geometry" />
        </mxCell>
        <mxCell id="ghD1SMU0GDY-hBt2vnao-17" style="edgeStyle=elbowEdgeStyle;rounded=0;orthogonalLoop=1;jettySize=auto;html=1;elbow=horizontal;curved=0;" edge="1" parent="1">
          <mxGeometry relative="1" as="geometry">
            <mxPoint x="149.81034482758628" y="280" as="sourcePoint" />
            <mxPoint x="149.81034482758628" y="300" as="targetPoint" />
            <Array as="points">
              <mxPoint x="220" y="290" />
            </Array>
          </mxGeometry>
        </mxCell>
        <mxCell id="ghD1SMU0GDY-hBt2vnao-18" value="getPreviousMonthRange()" style="edgeLabel;html=1;align=center;verticalAlign=middle;resizable=0;points=[];" vertex="1" connectable="0" parent="ghD1SMU0GDY-hBt2vnao-17">
          <mxGeometry x="-0.646" relative="1" as="geometry">
            <mxPoint x="43" y="-10" as="offset" />
          </mxGeometry>
        </mxCell>
        <mxCell id="ghD1SMU0GDY-hBt2vnao-29" style="edgeStyle=elbowEdgeStyle;rounded=0;orthogonalLoop=1;jettySize=auto;html=1;elbow=horizontal;curved=0;" edge="1" parent="1">
          <mxGeometry relative="1" as="geometry">
            <mxPoint x="149.5" y="237" as="sourcePoint" />
            <mxPoint x="149.5" y="257" as="targetPoint" />
            <Array as="points">
              <mxPoint x="220" y="250" />
            </Array>
          </mxGeometry>
        </mxCell>
        <mxCell id="ghD1SMU0GDY-hBt2vnao-30" value="generateQuery(metric, timeframe, source, namespaces)" style="text;html=1;align=center;verticalAlign=middle;resizable=0;points=[];autosize=1;strokeColor=none;fillColor=none;fontSize=11;" vertex="1" parent="1">
          <mxGeometry x="140" y="210" width="300" height="30" as="geometry" />
        </mxCell>
        <mxCell id="ghD1SMU0GDY-hBt2vnao-37" style="edgeStyle=elbowEdgeStyle;rounded=0;orthogonalLoop=1;jettySize=auto;html=1;elbow=horizontal;curved=0;" edge="1" parent="1">
          <mxGeometry relative="1" as="geometry">
            <mxPoint x="990.0238095238096" y="550" as="sourcePoint" />
            <mxPoint x="990.0238095238096" y="570" as="targetPoint" />
            <Array as="points">
              <mxPoint x="1060" y="560" />
            </Array>
          </mxGeometry>
        </mxCell>
        <mxCell id="ghD1SMU0GDY-hBt2vnao-38" value="calculatePercentShares(totalMetric, queryMetrics)" style="edgeLabel;html=1;align=center;verticalAlign=middle;resizable=0;points=[];" vertex="1" connectable="0" parent="ghD1SMU0GDY-hBt2vnao-37">
          <mxGeometry x="-0.5963" y="2" relative="1" as="geometry">
            <mxPoint x="98" y="-8" as="offset" />
          </mxGeometry>
        </mxCell>
        <mxCell id="ghD1SMU0GDY-hBt2vnao-39" style="edgeStyle=elbowEdgeStyle;rounded=0;orthogonalLoop=1;jettySize=auto;html=1;elbow=horizontal;curved=0;" edge="1" parent="1">
          <mxGeometry relative="1" as="geometry">
            <mxPoint x="990.0238095238096" y="450" as="sourcePoint" />
            <mxPoint x="990.0238095238096" y="470" as="targetPoint" />
            <Array as="points">
              <mxPoint x="1060" y="460" />
            </Array>
          </mxGeometry>
        </mxCell>
        <mxCell id="ghD1SMU0GDY-hBt2vnao-41" value="calculateTotalLastValue(response)" style="edgeLabel;html=1;align=center;verticalAlign=middle;resizable=0;points=[];" vertex="1" connectable="0" parent="ghD1SMU0GDY-hBt2vnao-39">
          <mxGeometry x="-0.6299" relative="1" as="geometry">
            <mxPoint x="60" y="-10" as="offset" />
          </mxGeometry>
        </mxCell>
        <mxCell id="ghD1SMU0GDY-hBt2vnao-44" style="edgeStyle=elbowEdgeStyle;rounded=0;orthogonalLoop=1;jettySize=auto;html=1;elbow=vertical;curved=0;dashed=1;" edge="1" parent="1" source="ghD1SMU0GDY-hBt2vnao-5">
          <mxGeometry relative="1" as="geometry">
            <mxPoint x="989.69" y="600.2358620689656" as="sourcePoint" />
            <mxPoint x="150.00034482758628" y="600.2358620689656" as="targetPoint" />
          </mxGeometry>
        </mxCell>
        <mxCell id="ghD1SMU0GDY-hBt2vnao-45" value="return percentShares" style="edgeLabel;html=1;align=center;verticalAlign=middle;resizable=0;points=[];" vertex="1" connectable="0" parent="ghD1SMU0GDY-hBt2vnao-44">
          <mxGeometry x="0.3687" y="-1" relative="1" as="geometry">
            <mxPoint x="-205" y="-9" as="offset" />
          </mxGeometry>
        </mxCell>
        <mxCell id="ghD1SMU0GDY-hBt2vnao-46" style="edgeStyle=elbowEdgeStyle;rounded=0;orthogonalLoop=1;jettySize=auto;html=1;elbow=vertical;curved=0;" edge="1" parent="1" target="ghD1SMU0GDY-hBt2vnao-6">
          <mxGeometry relative="1" as="geometry">
            <mxPoint x="150" y="669.9999999999999" as="sourcePoint" />
            <mxPoint x="990" y="669.9999999999999" as="targetPoint" />
          </mxGeometry>
        </mxCell>
        <mxCell id="ghD1SMU0GDY-hBt2vnao-47" value="writeToExcel(fileName, excelData)" style="edgeLabel;html=1;align=center;verticalAlign=middle;resizable=0;points=[];" vertex="1" connectable="0" parent="ghD1SMU0GDY-hBt2vnao-46">
          <mxGeometry x="-0.4239" y="1" relative="1" as="geometry">
            <mxPoint x="-232" y="-9" as="offset" />
          </mxGeometry>
        </mxCell>
        <mxCell id="ghD1SMU0GDY-hBt2vnao-48" style="edgeStyle=elbowEdgeStyle;rounded=0;orthogonalLoop=1;jettySize=auto;html=1;elbow=vertical;curved=0;dashed=1;" edge="1" parent="1">
          <mxGeometry relative="1" as="geometry">
            <mxPoint x="1270" y="710.26" as="sourcePoint" />
            <mxPoint x="149.66666666666652" y="710" as="targetPoint" />
          </mxGeometry>
        </mxCell>
        <mxCell id="ghD1SMU0GDY-hBt2vnao-49" value="file saved" style="edgeLabel;html=1;align=center;verticalAlign=middle;resizable=0;points=[];" vertex="1" connectable="0" parent="ghD1SMU0GDY-hBt2vnao-48">
          <mxGeometry x="0.3687" y="-1" relative="1" as="geometry">
            <mxPoint x="-323" y="-9" as="offset" />
          </mxGeometry>
        </mxCell>
        <mxCell id="ghD1SMU0GDY-hBt2vnao-50" style="edgeStyle=elbowEdgeStyle;rounded=0;orthogonalLoop=1;jettySize=auto;html=1;elbow=vertical;curved=0;" edge="1" parent="1" target="ghD1SMU0GDY-hBt2vnao-7">
          <mxGeometry relative="1" as="geometry">
            <mxPoint x="150" y="750.3299999999999" as="sourcePoint" />
            <mxPoint x="1270" y="750.33" as="targetPoint" />
          </mxGeometry>
        </mxCell>
        <mxCell id="ghD1SMU0GDY-hBt2vnao-51" value="sendEmailWithAttachment(config, fileName)" style="edgeLabel;html=1;align=center;verticalAlign=middle;resizable=0;points=[];" vertex="1" connectable="0" parent="ghD1SMU0GDY-hBt2vnao-50">
          <mxGeometry x="-0.4239" y="1" relative="1" as="geometry">
            <mxPoint x="-252" y="-9" as="offset" />
          </mxGeometry>
        </mxCell>
        <mxCell id="ghD1SMU0GDY-hBt2vnao-52" style="edgeStyle=elbowEdgeStyle;rounded=0;orthogonalLoop=1;jettySize=auto;html=1;elbow=vertical;curved=0;dashed=1;" edge="1" parent="1">
          <mxGeometry relative="1" as="geometry">
            <mxPoint x="1409.5" y="780.3266666666667" as="sourcePoint" />
            <mxPoint x="149.66666666666652" y="780.3266666666667" as="targetPoint" />
          </mxGeometry>
        </mxCell>
        <mxCell id="ghD1SMU0GDY-hBt2vnao-53" value="email sent" style="edgeLabel;html=1;align=center;verticalAlign=middle;resizable=0;points=[];" vertex="1" connectable="0" parent="ghD1SMU0GDY-hBt2vnao-52">
          <mxGeometry x="0.3687" y="-1" relative="1" as="geometry">
            <mxPoint x="-367" y="-9" as="offset" />
          </mxGeometry>
        </mxCell>
        <mxCell id="ghD1SMU0GDY-hBt2vnao-55" value="User" style="shape=umlActor;verticalLabelPosition=bottom;verticalAlign=top;html=1;fillColor=#f8cecc;strokeColor=#b85450;" vertex="1" parent="1">
          <mxGeometry x="10" y="840.0000000000002" width="30" height="60" as="geometry" />
        </mxCell>
        <mxCell id="ghD1SMU0GDY-hBt2vnao-56" style="edgeStyle=elbowEdgeStyle;rounded=0;orthogonalLoop=1;jettySize=auto;html=1;elbow=vertical;curved=0;dashed=1;" edge="1" parent="1" target="ghD1SMU0GDY-hBt2vnao-55">
          <mxGeometry relative="1" as="geometry">
            <mxPoint x="1409.83" y="879.9966666666667" as="sourcePoint" />
            <mxPoint x="149.99666666666653" y="879.9966666666667" as="targetPoint" />
          </mxGeometry>
        </mxCell>
        <mxCell id="ghD1SMU0GDY-hBt2vnao-57" value="recieves email" style="edgeLabel;html=1;align=center;verticalAlign=middle;resizable=0;points=[];" vertex="1" connectable="0" parent="ghD1SMU0GDY-hBt2vnao-56">
          <mxGeometry x="0.3687" y="-1" relative="1" as="geometry">
            <mxPoint x="-367" y="-9" as="offset" />
          </mxGeometry>
        </mxCell>
      </root>
    </mxGraphModel>
  </diagram>
</mxfile>
